<svg xmlns="http://www.w3.org/2000/svg" xmlns:xlink="http://www.w3.org/1999/xlink" contentStyleType="text/css" data-diagram-type="ACTIVITY" height="625px" preserveAspectRatio="none" style="width:743px;height:625px;background:#FFFFFF;" version="1.1" viewBox="0 0 743 625" width="743px" zoomAndPan="magnify"><?plantuml 1.2026.6?><defs/><g><rect fill="none" height="21.1992" style="stroke:none;stroke-width:1;" width="696.6821" x="20" y="17.2969"/><ellipse cx="151.6353" cy="53.4961" fill="#222222" rx="10" ry="10" style="stroke:#222222;stroke-width:1;"/><rect fill="#F1F1F1" height="34.1328" rx="12.5" ry="12.5" style="stroke:#181818;stroke-width:0.5;" width="211.9355" x="45.6675" y="83.4961"/><text fill="#000000" font-family="sans-serif" font-size="12" lengthAdjust="spacing" textLength="191.9355" x="55.6675" y="105.0977">Register claim (PRECAUTIONARY)</text><rect fill="#F1F1F1" height="34.1328" rx="12.5" ry="12.5" style="stroke:#181818;stroke-width:0.5;" width="62.8906" x="26" y="235.7617"/><text fill="#000000" font-family="sans-serif" font-size="12" lengthAdjust="spacing" textLength="42.8906" x="36" y="257.3633">Decline</text><ellipse cx="57.4453" cy="300.8945" fill="none" rx="11" ry="11" style="stroke:#222222;stroke-width:1;"/><ellipse cx="57.4453" cy="300.8945" fill="#222222" rx="6" ry="6" style="stroke:#222222;stroke-width:1;"/><rect fill="#F1F1F1" height="34.1328" rx="12.5" ry="12.5" style="stroke:#181818;stroke-width:0.5;" width="147.6113" x="172.0195" y="235.7617"/><text fill="#000000" font-family="sans-serif" font-size="12" lengthAdjust="spacing" textLength="127.6113" x="182.0195" y="257.3633">Move to IN_PROGRESS</text><rect fill="#F1F1F1" height="34.1328" rx="12.5" ry="12.5" style="stroke:#181818;stroke-width:0.5;" width="120.6348" x="185.5078" y="289.8945"/><text fill="#000000" font-family="sans-serif" font-size="12" lengthAdjust="spacing" textLength="100.6348" x="195.5078" y="311.4961">Request payment</text><rect fill="#F1F1F1" height="34.1328" rx="12.5" ry="12.5" style="stroke:#181818;stroke-width:0.5;" width="107.2227" x="128.793" y="496.293"/><text fill="#000000" font-family="sans-serif" font-size="12" lengthAdjust="spacing" textLength="87.2227" x="138.793" y="517.8945">Update reserve</text><rect fill="#F1F1F1" height="34.1328" rx="12.5" ry="12.5" style="stroke:#181818;stroke-width:0.5;" width="86.6563" x="265.918" y="496.293"/><text fill="#000000" font-family="sans-serif" font-size="12" lengthAdjust="spacing" textLength="66.6563" x="275.918" y="517.8945">Close claim</text><ellipse cx="309.2461" cy="561.4258" fill="none" rx="11" ry="11" style="stroke:#222222;stroke-width:1;"/><ellipse cx="309.2461" cy="561.4258" fill="#222222" rx="6" ry="6" style="stroke:#222222;stroke-width:1;"/><line style="stroke:#000000;stroke-width:1.5;" x1="20" x2="20" y1="17.2969" y2="604.4258"/><rect fill="#F1F1F1" height="34.1328" rx="12.5" ry="12.5" style="stroke:#181818;stroke-width:0.5;" width="164.2402" x="362.5742" y="137.6289"/><text fill="#000000" font-family="sans-serif" font-size="12" lengthAdjust="spacing" textLength="144.2402" x="372.5742" y="159.2305">Validate against contract</text><polygon fill="#F1F1F1" points="420.5029,191.7617,468.8857,191.7617,480.8857,203.7617,468.8857,215.7617,420.5029,215.7617,408.5029,203.7617,420.5029,191.7617" style="stroke:#181818;stroke-width:0.5;stroke-linejoin:miter;stroke-miterlimit:10;"/><text fill="#000000" font-family="sans-serif" font-size="11" lengthAdjust="spacing" textLength="48.3828" x="420.5029" y="207.9189">Covered?</text><text fill="#000000" font-family="sans-serif" font-size="11" lengthAdjust="spacing" textLength="13.5835" x="394.9194" y="201.4414">no</text><text fill="#000000" font-family="sans-serif" font-size="11" lengthAdjust="spacing" textLength="17.4829" x="480.8857" y="201.4414">yes</text><rect fill="#F1F1F1" height="34.1328" rx="12.5" ry="12.5" style="stroke:#181818;stroke-width:0.5;" width="127.0273" x="411.9497" y="442.1602"/><text fill="#000000" font-family="sans-serif" font-size="12" lengthAdjust="spacing" textLength="107.0273" x="421.9497" y="463.7617">Request more info</text><line style="stroke:#000000;stroke-width:1.5;" x1="356.5742" x2="356.5742" y1="17.2969" y2="604.4258"/><rect fill="#F1F1F1" height="34.1328" rx="12.5" ry="12.5" style="stroke:#181818;stroke-width:0.5;" width="122.6328" x="548.9771" y="344.0273"/><text fill="#000000" font-family="sans-serif" font-size="12" lengthAdjust="spacing" textLength="102.6328" x="558.9771" y="365.6289">Approve payment</text><polygon fill="#F1F1F1" points="582.2537,398.1602,638.3333,398.1602,650.3333,410.1602,638.3333,422.1602,582.2537,422.1602,570.2537,410.1602,582.2537,398.1602" style="stroke:#181818;stroke-width:0.5;stroke-linejoin:miter;stroke-miterlimit:10;"/><text fill="#000000" font-family="sans-serif" font-size="11" lengthAdjust="spacing" textLength="56.0796" x="582.2537" y="414.3174">Approved?</text><text fill="#000000" font-family="sans-serif" font-size="11" lengthAdjust="spacing" textLength="13.5835" x="556.6702" y="407.8398">no</text><text fill="#000000" font-family="sans-serif" font-size="11" lengthAdjust="spacing" textLength="17.4829" x="650.3333" y="407.8398">yes</text><rect fill="#F1F1F1" height="34.1328" rx="12.5" ry="12.5" style="stroke:#181818;stroke-width:0.5;" width="74.2402" x="636.5942" y="442.1602"/><text fill="#000000" font-family="sans-serif" font-size="12" lengthAdjust="spacing" textLength="54.2402" x="646.5942" y="463.7617">Pay claim</text><line style="stroke:#000000;stroke-width:1.5;" x1="542.9771" x2="542.9771" y1="17.2969" y2="604.4258"/><line style="stroke:#000000;stroke-width:1.5;" x1="714.8345" x2="714.8345" y1="17.2969" y2="604.4258"/><line style="stroke:#181818;stroke-width:1;" x1="151.6353" x2="151.6353" y1="63.4961" y2="83.4961"/><polygon fill="#181818" points="147.6353,73.4961,155.6353,73.4961,151.6353,83.4961" style="stroke:#181818;stroke-width:1;stroke-linejoin:miter;stroke-miterlimit:10;"/><line style="stroke:#181818;stroke-width:1;" x1="57.4453" x2="57.4453" y1="269.8945" y2="289.8945"/><polygon fill="#181818" points="53.4453,279.8945,61.4453,279.8945,57.4453,289.8945" style="stroke:#181818;stroke-width:1;stroke-linejoin:miter;stroke-miterlimit:10;"/><line style="stroke:#181818;stroke-width:1;" x1="245.8252" x2="245.8252" y1="269.8945" y2="289.8945"/><polygon fill="#181818" points="241.8252,279.8945,249.8252,279.8945,245.8252,289.8945" style="stroke:#181818;stroke-width:1;stroke-linejoin:miter;stroke-miterlimit:10;"/><line style="stroke:#181818;stroke-width:1;" x1="309.2461" x2="309.2461" y1="530.4258" y2="550.4258"/><polygon fill="#181818" points="305.2461,540.4258,313.2461,540.4258,309.2461,550.4258" style="stroke:#181818;stroke-width:1;stroke-linejoin:miter;stroke-miterlimit:10;"/><line style="stroke:#181818;stroke-width:1;" x1="444.6943" x2="444.6943" y1="171.7617" y2="191.7617"/><polygon fill="#181818" points="440.6943,181.7617,448.6943,181.7617,444.6943,191.7617" style="stroke:#181818;stroke-width:1;stroke-linejoin:miter;stroke-miterlimit:10;"/><line style="stroke:#181818;stroke-width:1;" x1="650.3333" x2="673.7144" y1="410.1602" y2="410.1602"/><line style="stroke:#181818;stroke-width:1;" x1="673.7144" x2="673.7144" y1="410.1602" y2="442.1602"/><polygon fill="#181818" points="669.7144,432.1602,677.7144,432.1602,673.7144,442.1602" style="stroke:#181818;stroke-width:1;stroke-linejoin:miter;stroke-miterlimit:10;"/><line style="stroke:#181818;stroke-width:1;" x1="610.2935" x2="610.2935" y1="378.1602" y2="398.1602"/><polygon fill="#181818" points="606.2935,388.1602,614.2935,388.1602,610.2935,398.1602" style="stroke:#181818;stroke-width:1;stroke-linejoin:miter;stroke-miterlimit:10;"/><line style="stroke:#181818;stroke-width:1;" x1="151.6353" x2="151.6353" y1="117.6289" y2="122.6289"/><line style="stroke:#181818;stroke-width:1;" x1="151.6353" x2="444.6943" y1="122.6289" y2="122.6289"/><line style="stroke:#181818;stroke-width:1;" x1="444.6943" x2="444.6943" y1="122.6289" y2="137.6289"/><polygon fill="#181818" points="440.6943,127.6289,448.6943,127.6289,444.6943,137.6289" style="stroke:#181818;stroke-width:1;stroke-linejoin:miter;stroke-miterlimit:10;"/><line style="stroke:#181818;stroke-width:1;" x1="245.8252" x2="245.8252" y1="324.0273" y2="329.0273"/><line style="stroke:#181818;stroke-width:1;" x1="245.8252" x2="610.2935" y1="329.0273" y2="329.0273"/><line style="stroke:#181818;stroke-width:1;" x1="610.2935" x2="610.2935" y1="329.0273" y2="344.0273"/><polygon fill="#181818" points="606.2935,334.0273,614.2935,334.0273,610.2935,344.0273" style="stroke:#181818;stroke-width:1;stroke-linejoin:miter;stroke-miterlimit:10;"/><line style="stroke:#181818;stroke-width:1;" x1="475.4634" x2="475.4634" y1="476.293" y2="481.293"/><line style="stroke:#181818;stroke-width:1;" x1="475.4634" x2="182.4043" y1="481.293" y2="481.293"/><line style="stroke:#181818;stroke-width:1;" x1="182.4043" x2="182.4043" y1="481.293" y2="496.293"/><polygon fill="#181818" points="178.4043,486.293,186.4043,486.293,182.4043,496.293" style="stroke:#181818;stroke-width:1;stroke-linejoin:miter;stroke-miterlimit:10;"/><line style="stroke:#181818;stroke-width:1;" x1="673.7144" x2="673.7144" y1="476.293" y2="481.293"/><line style="stroke:#181818;stroke-width:1;" x1="673.7144" x2="309.2461" y1="481.293" y2="481.293"/><line style="stroke:#181818;stroke-width:1;" x1="309.2461" x2="309.2461" y1="481.293" y2="496.293"/><polygon fill="#181818" points="305.2461,486.293,313.2461,486.293,309.2461,496.293" style="stroke:#181818;stroke-width:1;stroke-linejoin:miter;stroke-miterlimit:10;"/><line style="stroke:#181818;stroke-width:1;" x1="570.2537" x2="475.4634" y1="410.1602" y2="410.1602"/><line style="stroke:#181818;stroke-width:1;" x1="475.4634" x2="475.4634" y1="410.1602" y2="442.1602"/><polygon fill="#181818" points="471.4634,432.1602,479.4634,432.1602,475.4634,442.1602" style="stroke:#181818;stroke-width:1;stroke-linejoin:miter;stroke-miterlimit:10;"/><line style="stroke:#181818;stroke-width:1;" x1="182.4043" x2="182.4043" y1="530.4258" y2="592.4258"/><line style="stroke:#181818;stroke-width:1;" x1="182.4043" x2="444.6943" y1="592.4258" y2="592.4258"/><line style="stroke:#181818;stroke-width:1;" x1="444.6943" x2="444.6943" y1="592.4258" y2="604.4258"/><line style="stroke:#181818;stroke-width:1;" x1="408.5029" x2="57.4453" y1="203.7617" y2="203.7617"/><line style="stroke:#181818;stroke-width:1;" x1="57.4453" x2="57.4453" y1="203.7617" y2="235.7617"/><polygon fill="#181818" points="53.4453,225.7617,61.4453,225.7617,57.4453,235.7617" style="stroke:#181818;stroke-width:1;stroke-linejoin:miter;stroke-miterlimit:10;"/><line style="stroke:#181818;stroke-width:1;" x1="480.8857" x2="492.8857" y1="203.7617" y2="203.7617"/><line style="stroke:#181818;stroke-width:1;" x1="492.8857" x2="492.8857" y1="203.7617" y2="221.7617"/><line style="stroke:#181818;stroke-width:1;" x1="492.8857" x2="245.8252" y1="221.7617" y2="221.7617"/><line style="stroke:#181818;stroke-width:1;" x1="245.8252" x2="245.8252" y1="221.7617" y2="235.7617"/><polygon fill="#181818" points="241.8252,225.7617,249.8252,225.7617,245.8252,235.7617" style="stroke:#181818;stroke-width:1;stroke-linejoin:miter;stroke-miterlimit:10;"/><text fill="#000000" font-family="sans-serif" font-size="18" lengthAdjust="spacing" textLength="130.6846" x="122.9448" y="34.6992">Claims handler</text><text fill="#000000" font-family="sans-serif" font-size="18" lengthAdjust="spacing" textLength="102.9287" x="398.3113" y="34.6992">Underwriter</text><text fill="#000000" font-family="sans-serif" font-size="18" lengthAdjust="spacing" textLength="66.3838" x="595.7139" y="34.6992">Finance</text><?plantuml-src VL3DRjf04BxlKymjve2vv0I7oY9fn260JAdKKpMn1ppgxgmxkm6vuj27w1FsIRfsI0IDsijgDVFDztS3HRGOe2Ju_VCNL1RP0RQj-WDQ24Ts5eKWkmNrbi8eXqAyT8v_K9t3XWZoV7AtUYmMozpLkRb9J5AJJk49GmFX6riR9bX5Fd3ing-44nrGUO9WhpzM6W_QurVjDsZUFZjh4f6qgEWWnCvIUfMhUBrnNdpLg7S4ExI1BbQR1cj_PDcVD-OqxzK2D2Yr9JsP456ZcPQqvn19pqraw_9-Ncm_BLRBelmocfdJjlTzL8xzqVGpMgun4k0UMKA4oalK57TcU0VPt1z8gVumWjYGG2P-P03UQGDCxwYoB3HB_n1zQoYvXAnBZV_Zu35HG_ImM7vTbwk7ydwpwOzJWE_Fb8oqs3cIsCzE7rbGAXhkYg5VkjptJi_Zlwscuwl0_UHDmdabODdvsGlolSi4thP3Fqg1z33akufsxIxXrzYzTFy_qhdrYUC2DdIMgANcdHdUFm00?></g></svg>