<svg xmlns="http://www.w3.org/2000/svg" xmlns:xlink="http://www.w3.org/1999/xlink" version="1.1" data-diagram-type="ACTIVITY" style="width:656px;height:474px;background:#FFFFFF;" width="656px" height="474px" viewBox="0 0 656 474" zoomAndPan="magnify" preserveAspectRatio="none" contentStyleType="text/css"><?plantuml 1.2026.7beta11?><defs/><g font-family="sans-serif" lengthAdjust="spacing"><rect x="20" y="17.745" width="609.351" height="20.953" fill="none" style="stroke:none;"/><ellipse cx="90.126" cy="53.698" rx="10" ry="10" fill="#222" style="stroke:#222;stroke-width:1;"/><rect x="26" y="83.698" width="128.252" height="33.969" fill="#DCEEFB" style="stroke:#2563EB;stroke-width:0.5;" rx="12.5" ry="12.5"/><text x="36" y="104.837" fill="#000" font-size="12" textLength="108.252">Yêu cầu hoàn tiền</text><rect x="31.947" y="377.573" width="116.357" height="33.969" fill="#DCEEFB" style="stroke:#2563EB;stroke-width:0.5;" rx="12.5" ry="12.5"/><text x="41.947" y="398.712" fill="#000" font-size="12" textLength="96.357">Nhận thông báo</text><ellipse cx="90.126" cy="442.542" rx="11" ry="11" fill="none" style="stroke:#222;stroke-width:1;"/><ellipse cx="90.126" cy="442.542" rx="6" ry="6" fill="#222" style="stroke:#222;stroke-width:1;"/><line x1="20" y1="17.745" x2="20" y2="453.542" style="stroke:#000;stroke-width:1.5;"/><rect x="246.707" y="137.667" width="158.023" height="33.969" fill="#DCEEFB" style="stroke:#2563EB;stroke-width:0.5;" rx="12.5" ry="12.5"/><text x="256.707" y="158.806" fill="#000" font-size="12" textLength="138.023">Kiểm tra hạn hoàn tiền</text><polygon points="300.018,191.636,351.419,191.636,363.419,203.636,351.419,215.636,300.018,215.636,288.018,203.636,300.018,191.636" fill="#FEF3C7" style="stroke:#D97706;stroke-width:0.5;stroke-linejoin:miter;stroke-miterlimit:10;"/><text x="300.018" y="207.444" fill="#000" font-size="11" textLength="51.401">Còn hạn?</text><text x="275.24" y="201.042" fill="#000" font-size="11" textLength="12.778">có</text><text x="363.419" y="201.042" fill="#000" font-size="11" textLength="34.026">không</text><rect x="164.252" y="289.604" width="163.654" height="33.969" fill="#DCEEFB" style="stroke:#2563EB;stroke-width:0.5;" rx="12.5" ry="12.5"/><text x="174.252" y="310.743" fill="#000" font-size="12" textLength="143.654">Cập nhật trạng thái đơn</text><rect x="347.906" y="235.636" width="114.904" height="33.969" fill="#DCEEFB" style="stroke:#2563EB;stroke-width:0.5;" rx="12.5" ry="12.5"/><text x="357.906" y="256.774" fill="#000" font-size="12" textLength="94.904">Từ chối yêu cầu</text><polygon points="325.719,333.573,337.719,345.573,325.719,357.573,313.719,345.573,325.719,333.573" fill="#FEF3C7" style="stroke:#D97706;stroke-width:0.5;stroke-linejoin:miter;stroke-miterlimit:10;"/><line x1="158.252" y1="17.745" x2="158.252" y2="453.542" style="stroke:#000;stroke-width:1.5;"/><rect x="492.831" y="235.636" width="110.639" height="33.969" fill="#DCEEFB" style="stroke:#2563EB;stroke-width:0.5;" rx="12.5" ry="12.5"/><text x="502.831" y="256.774" fill="#000" font-size="12" textLength="90.639">Xử lý hoàn tiền</text><line x1="466.811" y1="17.745" x2="466.811" y2="453.542" style="stroke:#000;stroke-width:1.5;"/><line x1="627.49" y1="17.745" x2="627.49" y2="453.542" style="stroke:#000;stroke-width:1.5;"/><line x1="90.126" y1="63.698" x2="90.126" y2="83.698" style="stroke:#181818;stroke-width:1;"/><polygon points="86.126,73.698,90.126,83.698,94.126,73.698,90.126,77.698" fill="#181818" style="stroke:#181818;stroke-width:1;stroke-linejoin:miter;stroke-miterlimit:10;"/><line x1="90.126" y1="411.542" x2="90.126" y2="431.542" style="stroke:#181818;stroke-width:1;"/><polygon points="86.126,421.542,90.126,431.542,94.126,421.542,90.126,425.542" fill="#181818" style="stroke:#181818;stroke-width:1;stroke-linejoin:miter;stroke-miterlimit:10;"/><line x1="363.419" y1="203.636" x2="405.358" y2="203.636" style="stroke:#181818;stroke-width:1;"/><line x1="405.358" y1="203.636" x2="405.358" y2="235.636" style="stroke:#181818;stroke-width:1;"/><polygon points="401.358,225.636,405.358,235.636,409.358,225.636,405.358,229.636" fill="#181818" style="stroke:#181818;stroke-width:1;stroke-linejoin:miter;stroke-miterlimit:10;"/><line x1="246.079" y1="323.573" x2="246.079" y2="345.573" style="stroke:#181818;stroke-width:1;"/><line x1="246.079" y1="345.573" x2="313.719" y2="345.573" style="stroke:#181818;stroke-width:1;"/><polygon points="303.719,341.573,313.719,345.573,303.719,349.573,307.719,345.573" fill="#181818" style="stroke:#181818;stroke-width:1;stroke-linejoin:miter;stroke-miterlimit:10;"/><line x1="405.358" y1="269.604" x2="405.358" y2="345.573" style="stroke:#181818;stroke-width:1;"/><line x1="405.358" y1="345.573" x2="337.719" y2="345.573" style="stroke:#181818;stroke-width:1;"/><polygon points="347.719,341.573,337.719,345.573,347.719,349.573,343.719,345.573" fill="#181818" style="stroke:#181818;stroke-width:1;stroke-linejoin:miter;stroke-miterlimit:10;"/><line x1="325.719" y1="171.636" x2="325.719" y2="191.636" style="stroke:#181818;stroke-width:1;"/><polygon points="321.719,181.636,325.719,191.636,329.719,181.636,325.719,185.636" fill="#181818" style="stroke:#181818;stroke-width:1;stroke-linejoin:miter;stroke-miterlimit:10;"/><line x1="90.126" y1="117.667" x2="90.126" y2="122.667" style="stroke:#181818;stroke-width:1;"/><line x1="90.126" y1="122.667" x2="325.719" y2="122.667" style="stroke:#181818;stroke-width:1;"/><line x1="325.719" y1="122.667" x2="325.719" y2="137.667" style="stroke:#181818;stroke-width:1;"/><polygon points="321.719,127.667,325.719,137.667,329.719,127.667,325.719,131.667" fill="#181818" style="stroke:#181818;stroke-width:1;stroke-linejoin:miter;stroke-miterlimit:10;"/><line x1="548.15" y1="269.604" x2="548.15" y2="274.604" style="stroke:#181818;stroke-width:1;"/><line x1="548.15" y1="274.604" x2="246.079" y2="274.604" style="stroke:#181818;stroke-width:1;"/><line x1="246.079" y1="274.604" x2="246.079" y2="289.604" style="stroke:#181818;stroke-width:1;"/><polygon points="242.079,279.604,246.079,289.604,250.079,279.604,246.079,283.604" fill="#181818" style="stroke:#181818;stroke-width:1;stroke-linejoin:miter;stroke-miterlimit:10;"/><line x1="288.018" y1="203.636" x2="276.018" y2="203.636" style="stroke:#181818;stroke-width:1;"/><line x1="276.018" y1="203.636" x2="276.018" y2="221.636" style="stroke:#181818;stroke-width:1;"/><line x1="276.018" y1="221.636" x2="548.15" y2="221.636" style="stroke:#181818;stroke-width:1;"/><line x1="548.15" y1="221.636" x2="548.15" y2="235.636" style="stroke:#181818;stroke-width:1;"/><polygon points="544.15,225.636,548.15,235.636,552.15,225.636,548.15,229.636" fill="#181818" style="stroke:#181818;stroke-width:1;stroke-linejoin:miter;stroke-miterlimit:10;"/><line x1="325.719" y1="357.573" x2="325.719" y2="362.573" style="stroke:#181818;stroke-width:1;"/><line x1="325.719" y1="362.573" x2="90.126" y2="362.573" style="stroke:#181818;stroke-width:1;"/><line x1="90.126" y1="362.573" x2="90.126" y2="377.573" style="stroke:#181818;stroke-width:1;"/><polygon points="86.126,367.573,90.126,377.573,94.126,367.573,90.126,371.573" fill="#181818" style="stroke:#181818;stroke-width:1;stroke-linejoin:miter;stroke-miterlimit:10;"/><text x="35.855" y="34.453" fill="#000" font-size="18" textLength="106.541">Khách hàng</text><text x="271.209" y="34.453" fill="#000" font-size="18" textLength="82.644">Hệ thống</text><text x="471.811" y="34.453" fill="#000" font-size="18" textLength="150.68">Cổng thanh toán</text><?plantuml-src PP2zIWD158NxUOeBDaad1XFS548s2KB0oaBBoUvcPqXo9ynEbE1QY8Lr2dkt4fGqQhMBrOZlCM_Y7PGGr_QSxvpxaqqbBhZcSnZpQ9fgjSGuL3EbuKf8ax1iw_F8o4jfLd3D07erUAyV3WR3ddUKZXFzgnuSjbl9cDI-v7E5yR_OS31iXPqTO3ST7tKw-srsmrW-4hQ810ZxY6dECiErOS65VLv2vCgd9GX53XZfgbliilp4LVTWXAlM7Wz6fD_DmMWEmfK5rd0vWKPeN_77F6vICa5eHFQjIPlbeQiUC2MHem2ZR84voS6vgpOmin-rCWhydKvewChD0f3gDuQsy5DydoqaVAw_2aebioo1nbJOTqpzqE3CLIyG-Gu9g-sT168i9_L_1AU-6dqbvM5i2zMb9wd5Dm00?></g></svg>